PathFileType	4	(X/Y/Z)	C:\Users\JDoe\SprintCalib.trc
DataRate	CameraRate	NumFrames	NumMarkers	Units	OrigDataRate	OrigDataStartFrame	OrigNumFrames
250.00	250.00	       4	65	mm	250.00	43	       337
Frame#	Time	C7			T8			T12			IJ			PX			R.AA			R.AC			R.Scapula			R.HeadHum			R.Hum			R.Epi.Med			R.Epi.Lat			R.Ulna			R.Wrist.Uln			R.Wrist.Rad			R.Hand			R.Hand2			R.Hand5			L.AA			L.AC			L.Scapula			L.HeadHum			L.Hum			L.Epi.Med			L.Epi.Lat			L.Ulna			L.Wrist.Uln			L.Wrist.Rad			L.Hand			L.Hand2			L.Hand5			Tete.H			Tete.D			Tete.G			Sacral			R.EIAS			LEIAS			R.Crete			L.Crete			R.GT			R.Hip			R.Knee.Med			R.Knee.Lat			R.TTA			R.Fibula			R.Ankle.Med			R.Ankle.Lat			R.Calca			R.Foot.Med			R.Foot.Lat			L.GT			L.Hip			L.Knee.Med			L.Knee.Lat			L.TTA			L.Fibula			L.Ankle.Med			L.Ankle.Lat			L.Calca			L.Foot.Med			L.Foot.Lat			StartG			StartD			StartAvt			StartArr			
		X1	Y1	Z1	X2	Y2	Z2	X3	Y3	Z3	X4	Y4	Z4	X5	Y5	Z5	X6	Y6	Z6	X7	Y7	Z7	X8	Y8	Z8	X9	Y9	Z9	X10	Y10	Z10	X11	Y11	Z11	X12	Y12	Z12	X13	Y13	Z13	X14	Y14	Z14	X15	Y15	Z15	X16	Y16	Z16	X17	Y17	Z17	X18	Y18	Z18	X19	Y19	Z19	X20	Y20	Z20	X21	Y21	Z21	X22	Y22	Z22	X23	Y23	Z23	X24	Y24	Z24	X25	Y25	Z25	X26	Y26	Z26	X27	Y27	Z27	X28	Y28	Z28	X29	Y29	Z29	X30	Y30	Z30	X31	Y31	Z31	X32	Y32	Z32	X33	Y33	Z33	X34	Y34	Z34	X35	Y35	Z35	X36	Y36	Z36	X37	Y37	Z37	X38	Y38	Z38	X39	Y39	Z39	X40	Y40	Z40	X41	Y41	Z41	X42	Y42	Z42	X43	Y43	Z43	X44	Y44	Z44	X45	Y45	Z45	X46	Y46	Z46	X47	Y47	Z47	X48	Y48	Z48	X49	Y49	Z49	X50	Y50	Z50	X51	Y51	Z51	X52	Y52	Z52	X53	Y53	Z53	X54	Y54	Z54	X55	Y55	Z55	X56	Y56	Z56	X57	Y57	Z57	X58	Y58	Z58	X59	Y59	Z59	X60	Y60	Z60	X61	Y61	Z61	X62	Y62	Z62	X63	Y63	Z63	X64	Y64	Z64	X65	Y65	Z65	

43	0.168	-100.94346	89.28886	1479.99719	-53.20174	73.96563	1254.33887	-95.74136	75.38485	1128.41870	-245.60194	85.28430	1401.79822	-293.08911	80.75504	1252.53015	-53.77637	174.14413	1436.22571	-203.01942	202.71739	1420.08105	-121.91286	225.84511	1457.03796	-98.76289	311.38196	1404.10022	-58.08506	369.77997	1274.94360	-109.68051	391.67566	1152.05920	-62.18880	443.12970	1226.95679	-53.45257	557.82745	1137.04077	-56.07110	655.44470	1023.49396	-94.41727	675.31909	1064.55298	-63.56869	708.30585	1000.98712	-70.45832	697.57440	956.71619	-85.53043	754.08160	1012.48492	-52.34927	-12.56420	1431.30469	-204.57245	-28.70817	1429.08215	-133.58186	-63.42239	1465.77429	-114.52777	-157.91864	1421.62488	-73.80303	-195.77153	1280.48926	-151.97435	-255.89682	1200.12793	-98.01164	-298.51437	1274.43262	-103.44676	-383.95981	1155.08203	-140.53156	-529.90839	1081.38928	-175.71039	-558.01971	1125.35388	-158.96732	-589.32672	1065.22607	-185.74805	-636.82312	1071.79382	-168.91058	-584.08081	1021.18378	-145.30165	77.29701	1728.68787	-258.25043	76.29616	1713.21069	-60.56370	89.26631	1649.53516	-65.55695	72.53371	1024.96057	-280.87488	154.26054	1010.90723	-288.64886	2.65837	1020.30389	-170.99576	229.93724	1054.09167	-189.35036	-72.80010	1058.69031	-132.11060	242.07249	927.04974	-267.02011	221.19275	748.67084	-125.17037	141.37143	483.76013	-132.31424	262.63315	518.17950	-177.73001	213.87573	408.60681	-120.92084	280.54218	388.23215	-113.00687	168.35214	95.96040	-77.43677	251.82137	91.79535	-27.18069	189.96356	61.24834	-252.76308	249.47377	55.80072	-232.54800	302.52408	48.09917	-139.46048	-89.27981	936.60736	-133.47295	-121.64849	761.03998	-127.27341	3.51733	500.31351	-131.44510	-120.30574	522.03479	-184.81970	-88.49449	418.91470	-91.81373	-136.50226	350.29001	-136.61020	-43.62323	99.17238	-86.14629	-122.39832	87.83962	-46.44447	-53.13426	67.05750	-272.94516	-110.50086	51.45567	-240.90900	-177.03981	57.28382	-594.28491	266.32822	25.50204	-929.95142	-121.84692	33.68814	-519.39417	71.73836	44.99410	-1119.95569	77.42956	55.45056	-74.47054	165.79932	1147.77734	-50.08777	-12.98470	1261.73743	-11.57329	650.25104	18.80171	-4.16119	-539.64282	34.38654	-306.00842	81.47340	1046.60730	
44	0.172	-101.45417	89.49773	1479.28088	-53.03835	73.90678	1254.29968	-95.74136	75.38485	1128.41870	-245.60194	85.28430	1401.79822	-292.93661	80.90124	1252.23450	-53.77637	174.14413	1436.22571	-203.01942	202.71739	1420.08105	-121.91286	225.84511	1457.03796	-98.66875	311.31769	1404.24500	-58.03729	370.11411	1274.98535	-109.68051	391.67566	1152.05920	-62.04446	443.31586	1227.28870	-53.45257	557.82745	1137.04077	-56.01608	655.58905	1023.68451	-94.43661	675.54773	1064.62122	-63.52199	708.16077	1001.12067	-70.08258	697.13727	956.98523	-85.53043	754.08160	1012.48492	-52.33013	-11.83708	1430.42200	-204.20174	-28.50230	1428.87048	-133.55606	-63.48505	1465.68359	-114.52777	-157.91864	1421.62488	-73.79362	-195.84363	1280.47925	-151.97435	-255.89682	1200.12793	-97.81695	-298.55225	1274.41089	-103.26744	-384.09775	1155.11938	-140.49710	-529.75037	1081.22961	-175.59030	-557.81958	1125.30396	-158.51308	-589.39581	1065.36511	-185.78554	-636.99182	1071.95325	-168.91058	-584.08081	1021.18378	-145.23392	77.28680	1728.70593	-258.00479	76.23664	1713.37964	-60.47532	89.19021	1649.53357	-65.53682	72.68051	1024.86987	-280.87488	154.26054	1010.90723	-288.59048	2.44120	1020.41089	-170.99576	229.93724	1054.09167	-189.35036	-72.80010	1058.69031	-131.95790	242.02513	926.86810	-267.02011	221.19275	748.67084	-125.17037	141.37143	483.76013	-132.06866	262.51590	518.04535	-177.79344	214.10832	408.79187	-120.59936	280.62817	388.25433	-112.86280	168.19037	96.12273	-77.50765	251.46289	92.07136	-27.13128	190.00060	61.19415	-252.76308	249.47377	55.80072	-232.54800	302.52408	48.09917	-139.27057	-89.38860	936.77423	-133.35263	-121.75335	761.33856	-127.27341	3.51733	500.31351	-131.44876	-120.39058	521.88800	-184.81970	-88.49449	418.91470	-91.74393	-136.39461	350.14658	-136.47006	-43.43678	99.43565	-86.14629	-122.39832	87.83962	-46.35104	-53.26611	67.15966	-273.18365	-110.47706	51.39683	-241.04240	-177.12064	57.33945	-594.35736	266.39819	25.54562	-929.84241	-121.90863	33.66837	-519.47772	71.85072	44.91535	-1119.97424	77.35743	55.55585	-74.55135	165.62335	1147.77539	-50.08777	-12.98470	1261.73743	-11.55138	650.24347	18.88408	-4.32862	-539.66125	34.45494	-305.72174	81.53863	1046.55579	
45	0.176	-101.45417	89.49773	1479.28088	-53.03167	73.90291	1254.29053	-95.74136	75.38485	1128.41870	-245.45203	85.32302	1401.67065	-292.93661	80.90124	1252.23450	-53.77637	174.14413	1436.22571	-202.87848	202.74768	1420.17932	-121.91286	225.84511	1457.03796	-98.54321	311.24750	1404.20825	-58.13108	370.02032	1275.03528	-109.68051	391.67566	1152.05920	-61.68775	443.30463	1227.35876	-53.45257	557.82745	1137.04077	-56.01608	655.58905	1023.68451	-94.27006	675.51776	1064.56592	-63.56753	708.55444	1001.01630	-69.96320	697.29407	956.75012	-85.53043	754.08160	1012.48492	-52.21701	-11.78198	1430.48389	-204.29234	-28.32107	1429.07507	-133.55606	-63.48505	1465.68359	-114.14899	-157.94186	1421.45569	-73.80303	-195.77153	1280.48926	-151.97435	-255.89682	1200.12793	-97.81695	-298.55225	1274.41089	-103.26744	-384.09775	1155.11938	-140.49710	-529.75037	1081.22961	-175.71039	-558.01971	1125.35388	-158.53796	-589.56085	1065.66675	-185.74805	-636.82312	1071.79382	-168.64961	-584.18921	1021.10681	-144.89319	77.52853	1728.58215	-258.00479	76.23664	1713.37964	-60.47532	89.19021	1649.53357	-65.53682	72.68051	1024.86987	-280.87488	154.26054	1010.90723	-288.59048	2.44120	1020.41089	-170.99576	229.93724	1054.09167	-189.35036	-72.80010	1058.69031	-131.95790	242.02513	926.86810	-266.85367	221.04579	748.50958	-125.17037	141.37143	483.76013	-132.06866	262.51590	518.04535	-177.79344	214.10832	408.79187	-120.66134	280.33276	388.24872	-113.00687	168.35214	95.96040	-77.55435	251.59814	91.88261	-27.16331	189.81293	61.37292	-252.72076	249.36607	55.74870	-232.44496	302.56140	48.22749	-139.27057	-89.38860	936.77423	-133.11549	-121.77364	761.21063	-127.45962	3.71244	500.27744	-131.25783	-120.03581	521.47559	-184.81970	-88.49449	418.91470	-91.72810	-136.59906	350.22034	-136.47043	-43.32224	99.11852	-86.14629	-122.39832	87.83962	-46.35104	-53.26611	67.15966	-272.94516	-110.50086	51.45567	-241.02287	-177.01164	57.27098	-594.32819	266.33832	25.34545	-929.72333	-121.95848	33.67964	-519.41260	71.81577	44.95951	-1120.05310	77.46363	55.56725	-74.42709	165.65936	1147.71252	-49.72425	-13.00093	1261.84619	-11.55095	650.17474	18.82187	-4.16119	-539.64282	34.38654	-305.72174	81.53863	1046.55579	
46	0.180	-101.40050	89.49162	1479.13696	-53.20174	73.96563	1254.33887	-95.74136	75.38485	1128.41870	-245.60194	85.28430	1401.79822	-292.85049	80.88535	1252.41089	-53.77637	174.14413	1436.22571	-203.01942	202.71739	1420.08105	-121.83775	225.86839	1457.14465	-98.50928	311.31641	1404.15027	-58.12203	369.95853	1274.95642	-109.52010	391.67557	1152.15906	-61.68775	443.30463	1227.35876	-53.44659	557.88013	1136.99109	-56.07110	655.44470	1023.49396	-94.36209	675.52246	1064.71350	-63.52199	708.16077	1001.12067	-69.96320	697.29407	956.75012	-85.53043	754.08160	1012.48492	-52.18200	-11.74288	1430.39417	-204.17749	-28.36016	1428.88794	-133.55606	-63.48505	1465.68359	-114.14899	-157.94186	1421.45569	-73.38406	-195.66385	1280.69214	-151.39397	-255.94356	1199.72791	-97.81695	-298.55225	1274.41089	-103.04724	-383.83969	1155.14014	-140.34076	-529.58893	1081.27209	-175.28514	-557.89752	1125.38049	-158.39417	-589.25317	1065.49133	-185.74069	-637.11053	1071.86414	-168.64961	-584.18921	1021.10681	-144.58179	77.58379	1728.49219	-257.75562	76.39033	1713.34460	-60.47532	89.19021	1649.53357	-65.53682	72.68051	1024.86987	-280.87488	154.26054	1010.90723	-288.59048	2.44120	1020.41089	-170.99576	229.93724	1054.09167	-189.35036	-72.80010	1058.69031	-131.67223	241.88181	927.17798	-266.88202	221.03719	748.66193	-125.17037	141.37143	483.76013	-131.95341	262.68820	518.07031	-177.73001	213.87573	408.60681	-120.66134	280.33276	388.24872	-112.77541	168.47559	95.87067	-77.49041	251.74187	91.87321	-27.14866	190.15121	61.06956	-252.59637	249.34766	55.69984	-232.44496	302.56140	48.22749	-139.27057	-89.38860	936.77423	-133.11502	-121.63354	761.06036	-126.85078	3.43515	500.64310	-131.44510	-120.30574	522.03479	-184.46535	-88.54343	418.70163	-91.74393	-136.39461	350.14658	-136.28563	-43.48719	99.00175	-86.14629	-122.39832	87.83962	-46.44447	-53.13426	67.05750	-272.94516	-110.50086	51.45567	-241.04240	-177.12064	57.33945	-594.22662	266.27563	25.40587	-929.73157	-121.69781	33.52437	-519.39758	71.74540	45.02583	-1120.05334	77.42271	55.64824	-74.41307	165.57054	1147.61450	-49.60776	-13.19124	1262.02917	-11.54279	650.15881	18.85048	-4.26367	-539.61664	34.37408	-305.66681	81.21596	1046.46729	
